<?xml version="1.0" encoding="iso-8859-1"?>
<!-- Generator: Adobe Illustrator 19.0.0, SVG Export Plug-In . SVG Version: 6.00 Build 0)  -->
<svg version="1.1" id="Capa_1" xmlns="http://www.w3.org/2000/svg" xmlns:xlink="http://www.w3.org/1999/xlink" x="0px" y="0px"
	 viewBox="0 0 512 512" style="enable-background:new 0 0 512 512;" xml:space="preserve">
<g>
	<path style="fill:#424C59;" d="M61.332,69.021c-1.968,0-3.936-0.751-5.437-2.253L2.252,13.127c-3.003-3.003-3.003-7.872,0-10.874
		c3.003-3.003,7.872-3.003,10.874,0l53.642,53.642c3.003,3.003,3.003,7.872,0,10.874C65.268,68.27,63.299,69.021,61.332,69.021z"/>
	<path style="fill:#424C59;" d="M504.31,512c-1.968,0-3.936-0.751-5.437-2.253l-72.485-72.485c-3.003-3.003-3.003-7.872,0-10.874
		c3.003-3.003,7.872-3.003,10.874,0l72.485,72.485c3.003,3.003,3.003,7.872,0,10.874C508.246,511.248,506.278,512,504.31,512z"/>
</g>
<g>
	<path style="fill:#BCBCBC;" d="M262.481,229.858l-53.104-53.104l25.011-25.011l53.104,53.104c6.906,6.906,6.906,18.105,0,25.011
		l0,0C280.586,236.764,269.387,236.764,262.481,229.858z"/>
	<path style="fill:#BCBCBC;" d="M229.856,287.495c-3.451,3.451-7.975,5.177-12.498,5.177c-4.532,0.007-9.055-1.718-12.514-5.177
		l-53.107-53.107l25.012-25.012l53.107,53.107c4.771,4.771,6.242,11.578,4.438,17.602
		C233.48,282.797,232.002,285.349,229.856,287.495z"/>
</g>
<g>
	<path style="fill:#D8D8D8;" d="M234.292,280.085c-1.66,0.5-3.371,0.746-5.097,0.746c-4.524,0-9.048-1.726-12.507-5.184
		l-53.107-53.107l13.166-13.166l53.107,53.107C234.626,267.252,236.098,274.06,234.292,280.085z"/>
	<path style="fill:#D8D8D8;" d="M291.93,222.449c-1.66,0.5-3.371,0.746-5.097,0.746c-4.524,0-9.048-1.726-12.507-5.184
		l-53.107-53.107l13.166-13.166l53.107,53.107C292.263,209.616,293.734,216.424,291.93,222.449z"/>
	<path style="fill:#D8D8D8;" d="M37.578,69.113l58.523,58.523L127.638,96.1L69.115,37.578c-3.714-3.714-9.733-3.714-13.447,0
		L37.578,55.668C33.866,59.38,33.866,65.401,37.578,69.113z"/>
</g>
<path style="fill:#BCBCBC;" d="M37.578,69.113l58.523,58.523l15.768-15.768L46.623,46.622l-9.044,9.044
	C33.866,59.38,33.866,65.401,37.578,69.113z"/>
<g>
	<path style="fill:#239999;" d="M234.082,127.191l-120.197,93.59l-50.866-50.866c-16.95-16.95-16.95-44.443,0-61.393l45.501-45.501
		c16.958-16.958,44.443-16.95,61.393,0L234.082,127.191z"/>
	<path style="fill:#239999;" d="M248.778,144.597L144.595,248.78c-8.106,8.106-21.242,8.106-29.355-0.007
		c-8.105-8.105-8.105-21.242,0-29.348l104.182-104.182c8.105-8.105,21.249-8.113,29.355-0.007c4.053,4.053,6.083,9.374,6.083,14.681
		C254.861,135.237,252.831,140.544,248.778,144.597z"/>
</g>
<g>
	<path style="fill:#45B8C4;" d="M248.778,144.597l-76.748,76.748c-8.105,8.105-21.249,8.113-29.363,0
		c-8.105-8.105-8.098-21.249,0.007-29.355l76.748-76.748c8.105-8.105,21.249-8.113,29.355-0.007
		c4.053,4.053,6.083,9.374,6.083,14.681C254.861,135.237,252.831,140.544,248.778,144.597z"/>
	<path style="fill:#45B8C4;" d="M209.587,102.695c-0.492,0.4-0.964,0.83-1.425,1.292l-62.984,62.984
		c-7.283,7.283-19.089,7.283-26.372,0l-26.422-26.422c-16.959-16.948-16.959-44.437,0-61.395l16.138-16.138
		c16.959-16.948,44.437-16.948,61.385,0L209.587,102.695z"/>
</g>
<path style="fill:#D8D8D8;" d="M389.712,421.247l45.966,45.966c3.714,3.714,9.733,3.714,13.447,0l18.089-18.089
	c3.714-3.714,3.714-9.733,0-13.447l-45.966-45.966L389.712,421.247z"/>
<path style="fill:#BCBCBC;" d="M389.712,421.247l45.966,45.966c3.714,3.714,9.733,3.714,13.447,0l9.044-9.044l-52.69-52.69
	L389.712,421.247z"/>
<g>
	<path style="fill:#D8A32E;" d="M450.531,387.516l-63.01,63.01c-21.655,21.655-56.753,21.648-78.401,0l-75.936-75.936
		l156.005-126.817l61.342,61.342C472.179,330.763,472.179,365.867,450.531,387.516z"/>
	<path style="fill:#D8A32E;" d="M392.125,244.836l-147.291,147.29c-8.106,8.106-21.249,8.113-29.355,0.007
		c-8.113-8.113-8.106-21.257,0-29.363L362.77,215.48c4.06-4.06,9.367-6.09,14.681-6.083c5.307,0,10.628,2.03,14.681,6.083
		C400.238,223.586,400.238,236.723,392.125,244.836z"/>
</g>
<g>
	<path style="fill:#FCC63D;" d="M392.122,244.833L278.806,358.15c-8.1,8.11-21.244,8.12-29.354,0.01
		c-0.032-0.032-0.064-0.064-0.095-0.095c-4.663-4.723-4.466-12.395,0.228-17.088l116.578-116.588
		c4.829-4.819,10.817-7.536,16.63-8.028c4.358-0.379,8.613,0.502,12.181,2.666C400.079,227.054,399.135,237.82,392.122,244.833z"/>
	<path style="fill:#FCC63D;" d="M450.531,387.516l-36.917,36.917c-21.648,21.648-56.745,21.641-78.394-0.007l-61.342-61.342
		l115.311-115.311l61.342,61.342C472.179,330.763,472.179,365.867,450.531,387.516z"/>
</g>
<g>
</g>
<g>
</g>
<g>
</g>
<g>
</g>
<g>
</g>
<g>
</g>
<g>
</g>
<g>
</g>
<g>
</g>
<g>
</g>
<g>
</g>
<g>
</g>
<g>
</g>
<g>
</g>
<g>
</g>
</svg>
