<svg id="Capa_1" enable-background="new 0 0 512 512" height="512" viewBox="0 0 512 512" width="512" xmlns="http://www.w3.org/2000/svg"><g><g><g><g><g><g><g><path d="m387.723 112.5-1.333 5.724 3.433 3.217 54.917 15.392 6.429-19.523c8.705-29.581 10.091-54.349-2.151-72.219-57.408-18.003-133.987-25.838-193.018-25.267-60.345-.584-139.041 7.61-196.835 26.477-44.065 14.385-68.749 61.144-55.662 105.612l.162.488 4.363 2.585 113.209-31.73 4.372-5.033-1.332-5.723c-2.811-11.791 6.129-23.114 18.251-23.114h113.472 113.472c12.122 0 21.062 11.322 18.251 23.114z" fill="#7fb2f9"/><g fill="#60a0f7"><path d="m447.048 117.325-6.076 18.451 64.544 18.09 2.817-1.465.164-.488c13.086-44.468-11.597-91.227-55.662-105.612-3.779-1.234-7.652-2.419-11.599-3.562 15.77 17.513 15.031 43.262 5.812 74.586z"/><path d="m130.65 139.875-5.041-21.652-121.944 34.178 7.043 21.184c4.733 14.237 19.813 22.246 34.259 18.198l65.892-18.468c14.48-4.059 23.201-18.794 19.791-33.44z"/><path d="m508.333 152.401-121.943-34.178-5.041 21.651c-3.41 14.646 5.311 29.381 19.791 33.44l65.892 18.468c14.446 4.049 29.526-3.961 34.259-18.198l7.043-21.184z"/></g><path d="m501.292 173.585 7.043-21.184h-.002l-66.681-18.689-7.887 23.95c-3.33 10.014-11.78 16.94-21.527 18.762l54.794 15.358c14.447 4.049 29.526-3.961 34.26-18.197z" fill="#61a2f9"/></g></g></g></g></g></g><g><g><g><g><g><g><path d="m130.287 492.205h-45.947c-6.23 0-11.28-5.05-11.28-11.28v-52.294h68.507v52.294c0 6.23-5.051 11.28-11.28 11.28z" fill="#407093"/></g><g><path d="m427.66 492.205h-45.947c-6.23 0-11.28-5.05-11.28-11.28v-52.294h68.507v52.294c0 6.23-5.05 11.28-11.28 11.28z" fill="#407093"/></g></g><g fill="#60a0f7"><path d="m160.8 232.557h56.58v-81.865c0-7.363-5.969-13.331-13.331-13.331h-29.918c-7.363 0-13.331 5.969-13.331 13.331z"/><path d="m294.62 232.557h56.58v-81.865c0-7.363-5.969-13.331-13.331-13.331h-29.918c-7.363 0-13.331 5.969-13.331 13.331z"/></g><path d="m337.992 171.159h-163.984c-6.814 0-13.392 2.492-18.495 7.007l-84 74.308c-24.58 21.744-38.654 52.986-38.654 85.803v83.05c0 20.572 16.677 37.249 37.249 37.249h371.786c20.572 0 37.249-16.677 37.249-37.249v-83.05c0-32.817-14.074-64.059-38.654-85.803l-84-74.308c-5.105-4.515-11.683-7.007-18.497-7.007z" fill="#9bc4f9"/><path d="m440.487 252.474-84-74.308c-5.103-4.515-11.682-7.007-18.495-7.007h-69.312c6.814 0 13.392 2.492 18.495 7.007l84 74.308c24.58 21.744 38.655 52.986 38.655 85.803v83.05c0 20.572-16.677 37.249-37.249 37.249h69.313c20.572 0 37.249-16.677 37.249-37.249v-83.05c-.001-32.817-14.075-64.059-38.656-85.803z" fill="#7fb2f9"/></g><g fill="#fff0af"><g><path d="m188.507 283.459h-32.051c-4.58 0-8.292-3.713-8.292-8.292v-13.807c0-4.58 3.713-8.292 8.292-8.292h32.051c4.58 0 8.292 3.713 8.292 8.292v13.807c0 4.579-3.712 8.292-8.292 8.292z"/><path d="m272.025 283.459h-32.051c-4.58 0-8.292-3.713-8.292-8.292v-13.807c0-4.58 3.713-8.292 8.292-8.292h32.051c4.58 0 8.292 3.713 8.292 8.292v13.807c.001 4.579-3.712 8.292-8.292 8.292z"/><path d="m355.544 283.459h-32.051c-4.58 0-8.292-3.713-8.292-8.292v-13.807c0-4.58 3.713-8.292 8.292-8.292h32.051c4.58 0 8.292 3.713 8.292 8.292v13.807c0 4.579-3.713 8.292-8.292 8.292z"/></g><g><path d="m188.507 347.972h-32.051c-4.58 0-8.292-3.713-8.292-8.292v-13.807c0-4.58 3.713-8.292 8.292-8.292h32.051c4.58 0 8.292 3.713 8.292 8.292v13.807c0 4.58-3.712 8.292-8.292 8.292z"/><path d="m272.025 347.972h-32.051c-4.58 0-8.292-3.713-8.292-8.292v-13.807c0-4.58 3.713-8.292 8.292-8.292h32.051c4.58 0 8.292 3.713 8.292 8.292v13.807c.001 4.58-3.712 8.292-8.292 8.292z"/><path d="m355.544 347.972h-32.051c-4.58 0-8.292-3.713-8.292-8.292v-13.807c0-4.58 3.713-8.292 8.292-8.292h32.051c4.58 0 8.292 3.713 8.292 8.292v13.807c0 4.58-3.713 8.292-8.292 8.292z"/></g><g><path d="m188.507 412.485h-32.051c-4.58 0-8.292-3.713-8.292-8.292v-13.807c0-4.58 3.713-8.292 8.292-8.292h32.051c4.58 0 8.292 3.713 8.292 8.292v13.807c0 4.58-3.712 8.292-8.292 8.292z"/><path d="m272.025 412.485h-32.051c-4.58 0-8.292-3.713-8.292-8.292v-13.807c0-4.58 3.713-8.292 8.292-8.292h32.051c4.58 0 8.292 3.713 8.292 8.292v13.807c.001 4.58-3.712 8.292-8.292 8.292z"/><path d="m355.544 412.485h-32.051c-4.58 0-8.292-3.713-8.292-8.292v-13.807c0-4.58 3.713-8.292 8.292-8.292h32.051c4.58 0 8.292 3.713 8.292 8.292v13.807c0 4.58-3.713 8.292-8.292 8.292z"/></g></g></g></g></g></g></svg>